<svg version="1.2" xmlns="http://www.w3.org/2000/svg" viewBox="0 0 1000 1000" width="500" height="500">
	<style>
		.s0 { fill: #ffffff } 
	</style>
	<g>
		<path class="s0" d="m444.57 2.97c-62.66 8.91-133.12 35.93-189.61 72.17-30.52 20.03-80.52 69.62-102.59 102.36-44.16 64.85-66.88 127.48-74.68 205.36-5.52 54.05-1.94 229.21 5.2 266.72 24.67 131.93 104.22 241.29 219.47 303.28 87.99 47.05 206.17 60.08 306.49 33.69 77.27-20.66 129.87-50.22 185.39-104.58 61.36-60.09 101.62-134.16 121.75-223.81 6.17-27.33 7.14-43.55 8.44-145.28 1.3-77.24 0.32-123.66-2.27-143.05-15.26-115.72-82.15-228.25-172.4-290.88-50.98-34.97-128.57-65.48-189.93-74.7-34.42-5.09-85.39-5.73-115.26-1.28zm106.49 37.83c51.95 5.41 116.88 29.57 164.28 61.04 26.3 17.49 80.19 68.67 98.38 93.78 31.16 42.6 57.46 106.18 67.85 163.08 7.47 40.38 10.72 190.11 4.22 192.01-2.27 0.64-22.08 2.87-43.83 4.77-43.83 3.82-123.7 22.57-164.6 38.47-53.25 20.66-104.87 48.96-145.13 79.79-6.49 5.09-12.34 8.58-12.99 7.95-0.65-0.95-0.97-31.47-0.32-68.03l0.97-66.76 20.46-3.5c93.82-15.89 162-73.75 185.71-157.68 6.16-22.25 9.41-87.74 5.51-112.85l-2.59-17.48-13.96 1.27c-55.2 3.81-117.86 41.96-153.9 93.46-14.61 21.3-35.06 63.26-35.06 72.48 0 3.18-1.3 6.04-3.25 6.04-1.94 0-3.24-8.58-3.24-19.39 0-17.49 1.3-21.62 12.98-38.47 7.15-10.49 15.91-28.61 19.48-40.05 8.77-27.66 11.69-72.48 6.82-100.78-5.19-29.56-25-69.3-43.5-86.78-16.89-16.21-18.83-15.58-38.96 8.58-27.6 33.38-38.96 72.16-36.69 125.25 2.27 42.92 9.09 64.54 31.49 96.64 8.12 11.13 9.42 16.22 9.42 34.02 0 11.44-0.98 20.98-2.28 20.98-1.62 0-5.19-8.26-8.11-18.44-14.29-46.09-59.42-103.63-100.65-127.16-25.65-14.94-59.74-26.06-79.54-26.06-15.91 0-17.21 0.63-19.48 8.58-4.55 17.8-2.6 90.6 3.24 113.81 12.02 46.09 39.94 89.64 75 115.39 31.17 23.21 79.87 43.56 119.8 49.91l12.02 1.91v68.03c0 39.42-1.3 68.35-2.93 68.35-1.62 0-3.57-1.27-4.22-2.54-1.94-5.09-50-38.15-78.89-54.05-69.15-38.46-165.58-66.44-249.02-72.48l-31.82-2.22v-81.7c0-88.38 2.92-116.04 18.18-165.31 19.81-63.26 51.63-113.17 103.9-162.13 88.96-83.61 186.36-115.08 315.25-101.73zm-39.29 157.05c11.37 24.47 16.56 65.48 11.69 94.73-3.89 25.75-15.58 56.59-21.43 56.59-4.87 0-14.61-17.17-20.12-34.97-6.82-22.26-8.77-56.59-4.55-79.48 4.22-23.2 17.21-54.04 22.73-54.04 1.94 0 7.14 7.63 11.68 17.17zm-171.74 110.31c40.25 19.07 77.92 62.62 97.72 113.81 10.71 26.7 24.35 82.97 20.45 82.97-5.84 0-39.61-12.72-58.76-22.26-28.25-13.98-63.64-48.95-77.27-76.29-5.85-11.45-12.66-30.84-15.26-42.92-4.87-22.89-6.49-62.62-2.6-66.12 2.92-3.18 12.01-0.32 35.72 10.81zm358.1 14.94c0 66.76-32.14 123.03-89.93 157.36-16.88 10.17-53.89 24.48-62.66 24.48-9.42 0 7.47-63.58 27.6-103.64 15.26-30.83 46.1-66.76 71.1-83.61 11.36-7.63 44.15-21.93 51.62-22.25 1.3-0.32 2.27 12.4 2.27 27.66zm-576.28 267.67c1.3 1.91 10.39 3.5 20.45 3.5 27.6 0.31 43.83 1.59 50.33 4.45 3.24 1.27 6.81 1.59 7.79 0.32 0.97-0.96 3.57-0.64 5.52 0.95 1.95 1.59 11.04 3.5 19.8 4.45 21.11 2.22 86.69 23.52 122.4 39.74 25.65 11.76 64.29 34.33 79.22 46.09 3.25 2.86 13.96 11.13 23.38 18.12 9.09 7.31 16.88 14.31 16.88 15.26-0.32 1.27-11.04 13.67-24.03 27.34l-23.7 25.11-12.33-10.8c-33.44-29.89-117.86-78.84-144.81-83.61-4.22-0.95-8.11-1.59-8.44-2.23-0.65-0.31-2.27-0.95-4.22-1.27-1.62-0.32-3.57-0.95-3.89-1.59-0.65-0.32-3.25-0.95-6.17-1.59-2.92-0.31-18.18-4.13-33.77-7.94-15.91-3.5-40.91-7.63-55.52-8.59l-26.94-1.91-3.25-16.21c-5.84-29.88-7.79-52.77-4.22-52.77 1.95 0 4.54 1.59 5.52 3.18zm764.27 5.4c0 5.09-1.95 20.35-3.9 34.34l-3.9 25.43-27.59 2.22c-15.26 1.28-38.64 4.77-51.95 7.63-13.31 2.87-26.62 5.73-29.22 6.04-2.6 0.64-5.19 1.28-5.52 1.28-0.65 0.31-1.62 0-1.95-0.64-0.65-0.32-3.57 1.27-6.49 3.81-3.25 2.23-5.52 3.18-5.52 1.91 0-1.27-2.27-0.63-4.87 1.59-2.6 2.23-4.87 3.18-4.87 2.23 0-3.5-46.43 16.85-75.32 33.06-91.56 51.5-168.18 130.34-214.61 220.94l-11.69 22.89-19.48-4.45c-10.71-2.55-23.37-6.04-28.24-7.63-4.55-1.91-9.42-2.55-11.04-1.59-1.62 0.95-3.57 0.32-4.87-1.59-1.3-1.91-3.57-2.23-5.52-1.27-5.84 3.49 0.32-11.13 21.1-50.55 10.72-20.35 20.78-37.19 22.08-37.19 1.62 0 2.92-1.91 2.92-4.45 0-2.55 1.3-5.09 2.6-5.73 1.62-0.63 9.09-10.17 17.21-21.61 7.79-11.45 16.88-22.57 20.13-24.8 2.92-2.23 5.52-6.04 5.52-8.27 0-4.76 63.63-65.48 68.5-65.48 1.62 0 4.55-2.86 6.82-6.36 2.27-3.5 5.52-6.36 6.82-6.36 2.92 0 22.08-13.67 32.79-23.21 3.57-2.86 7.79-5.4 9.74-5.4 1.62 0 5.52-1.91 8.12-4.45 17.2-15.26 136.36-66.76 155.19-67.08 1.94 0 4.87-0.95 5.84-2.22 1.3-1.27 4.22-1.27 6.49-0.64 2.28 0.96 5.2 0 6.5-1.59 0.97-1.9 3.24-2.86 4.54-2.22 1.3 0.95 8.12 0 15.26-1.59 6.82-1.59 21.43-3.82 32.14-4.77 10.72-0.95 21.76-2.86 24.35-4.45 2.6-1.27 9.42-1.59 15.26-0.95 5.52 0.95 12.67 0 16.24-1.91 9.09-5.09 10.71-4.14 10.39 5.08zm-690.25 107.77c59.74 9.54 124.68 39.42 183.44 84.56 17.53 13.67 25.32 24.8 17.53 24.8-1.3 0-9.74 11.44-18.5 25.43-14.94 23.53-21.11 29.88-21.11 22.57 0-1.91-12.01-12.4-26.62-23.52-32.47-24.48-96.75-56.27-137.01-67.4-15.91-4.45-30.84-10.49-33.12-13.67-3.24-4.13-18.18-36.24-26.29-56.58-1.63-4.14 19.8-2.86 61.68 3.81zm664.27 8.27c-15.26 38.15-22.72 50.23-31.49 51.81-44.48 9.22-115.58 41.01-154.22 69.62-32.79 24.17-79.22 72.49-98.05 101.73-8.44 13.35-16.23 24.16-17.53 24.48-26.95 2.54-75.32 3.5-77.92 1.27-1.62-1.59 26.3-48.32 42.21-70.57 17.85-25.12 71.42-81.07 97.07-101.41 58.44-45.78 143.51-82.34 211.04-89.97 39.93-4.45 36.69-6.04 28.89 13.04zm-72.4 121.43c-42.85 46.1-88.63 78.84-142.2 102.05-17.53 7.63-31.82 13.03-31.82 12.08 0-0.64 6.49-9.54 14.29-19.71 24.67-31.47 72.72-71.21 107.46-88.69 25.33-13.04 74.67-34.65 75.97-33.7 0.65 0.64-10.06 13.03-23.7 27.97zm-565.89-14.3c17.2 6.68 41.88 18.76 54.87 27.02 21.75 13.35 61.36 44.82 63.95 50.55 0.33 1.27-1.29 8.26-4.22 15.26l-5.19 12.71-13.96-7.31c-7.47-4.13-14.29-7.95-15.26-8.9-0.97-0.95-6.82-5.41-12.99-9.54-24.35-16.21-106.49-92.19-99.67-92.19 0.97 0 15.58 5.41 32.47 12.4z"/>
	</g>
</svg>