<svg version="1.2" xmlns="http://www.w3.org/2000/svg" viewBox="0 0 1000 1000" width="500" height="500">
	<style>
		.s0 { fill: #ffffff } 
	</style>
	<g>
		<path class="s0" d="m482.9 257.1c-19.3 2.8-41 11.3-58.4 22.7-9.4 6.3-24.8 21.9-31.6 32.2-13.6 20.4-20.6 40.1-23 64.6-1.7 17-0.6 72.1 1.6 83.9 7.6 41.5 32.1 75.9 67.6 95.4 27.1 14.8 63.5 18.9 94.4 10.6 23.8-6.5 40-15.8 57.1-32.9 18.9-18.9 31.3-42.2 37.5-70.4 1.9-8.6 2.2-13.7 2.6-45.7 0.4-24.3 0.1-38.9-0.7-45-4.7-36.4-25.3-71.8-53.1-91.5-15.7-11-39.6-20.6-58.5-23.5-10.6-1.6-26.3-1.8-35.5-0.4zm32.8 11.9c16 1.7 36 9.3 50.6 19.2 8.1 5.5 24.7 21.6 30.3 29.5 9.6 13.4 17.7 33.4 20.9 51.3 2.3 12.7 3.3 59.8 1.3 60.4-0.7 0.2-6.8 0.9-13.5 1.5-13.5 1.2-38.1 7.1-50.7 12.1-16.4 6.5-32.3 15.4-44.7 25.1-2 1.6-3.8 2.7-4 2.5-0.2-0.3-0.3-9.9-0.1-21.4l0.3-21 6.3-1.1c28.9-5 49.9-23.2 57.2-49.6 1.9-7 2.9-27.6 1.7-35.5l-0.8-5.5-4.3 0.4c-17 1.2-36.3 13.2-47.4 29.4-4.5 6.7-10.8 19.9-10.8 22.8 0 1-0.4 1.9-1 1.9-0.6 0-1-2.7-1-6.1 0-5.5 0.4-6.8 4-12.1 2.2-3.3 4.9-9 6-12.6 2.7-8.7 3.6-22.8 2.1-31.7-1.6-9.3-7.7-21.8-13.4-27.3-5.2-5.1-5.8-4.9-12 2.7-8.5 10.5-12 22.7-11.3 39.4 0.7 13.5 2.8 20.3 9.7 30.4 2.5 3.5 2.9 5.1 2.9 10.7 0 3.6-0.3 6.6-0.7 6.6-0.5 0-1.6-2.6-2.5-5.8-4.4-14.5-18.3-32.6-31-40-7.9-4.7-18.4-8.2-24.5-8.2-4.9 0-5.3 0.2-6 2.7-1.4 5.6-0.8 28.5 1 35.8 3.7 14.5 12.3 28.2 23.1 36.3 9.6 7.3 24.6 13.7 36.9 15.7l3.7 0.6v21.4c0 12.4-0.4 21.5-0.9 21.5-0.5 0-1.1-0.4-1.3-0.8-0.6-1.6-15.4-12-24.3-17-21.3-12.1-51-20.9-76.7-22.8l-9.8-0.7v-25.7c0-27.8 0.9-36.5 5.6-52 6.1-19.9 15.9-35.6 32-51 27.4-26.3 57.4-36.2 97.1-32zm-12.1 49.4c3.5 7.7 5.1 20.6 3.6 29.8-1.2 8.1-4.8 17.8-6.6 17.8-1.5 0-4.5-5.4-6.2-11-2.1-7-2.7-17.8-1.4-25 1.3-7.3 5.3-17 7-17 0.6 0 2.2 2.4 3.6 5.4zm-52.9 34.7c12.4 6 24 19.7 30.1 35.8 3.3 8.4 7.5 26.1 6.3 26.1-1.8 0-12.2-4-18.1-7-8.7-4.4-19.6-15.4-23.8-24-1.8-3.6-3.9-9.7-4.7-13.5-1.5-7.2-2-19.7-0.8-20.8 0.9-1 3.7-0.1 11 3.4zm110.3 4.7c0 21-9.9 38.7-27.7 49.5-5.2 3.2-16.6 7.7-19.3 7.7-2.9 0 2.3-20 8.5-32.6 4.7-9.7 14.2-21 21.9-26.3 3.5-2.4 13.6-6.9 15.9-7 0.4-0.1 0.7 3.9 0.7 8.7zm-177.5 84.2c0.4 0.6 3.2 1.1 6.3 1.1 8.5 0.1 13.5 0.5 15.5 1.4 1 0.4 2.1 0.5 2.4 0.1 0.3-0.3 1.1-0.2 1.7 0.3 0.6 0.5 3.4 1.1 6.1 1.4 6.5 0.7 26.7 7.4 37.7 12.5 7.9 3.7 19.8 10.8 24.4 14.5 1 0.9 4.3 3.5 7.2 5.7 2.8 2.3 5.2 4.5 5.2 4.8-0.1 0.4-3.4 4.3-7.4 8.6l-7.3 7.9-3.8-3.4c-10.3-9.4-36.3-24.8-44.6-26.3-1.3-0.3-2.5-0.5-2.6-0.7-0.2-0.1-0.7-0.3-1.3-0.4-0.5-0.1-1.1-0.3-1.2-0.5-0.2-0.1-1-0.3-1.9-0.5-0.9-0.1-5.6-1.3-10.4-2.5-4.9-1.1-12.6-2.4-17.1-2.7l-8.3-0.6-1-5.1c-1.8-9.4-2.4-16.6-1.3-16.6 0.6 0 1.4 0.5 1.7 1zm235.4 1.7c0 1.6-0.6 6.4-1.2 10.8l-1.2 8-8.5 0.7c-4.7 0.4-11.9 1.5-16 2.4-4.1 0.9-8.2 1.8-9 1.9-0.8 0.2-1.6 0.4-1.7 0.4-0.2 0.1-0.5 0-0.6-0.2-0.2-0.1-1.1 0.4-2 1.2-1 0.7-1.7 1-1.7 0.6 0-0.4-0.7-0.2-1.5 0.5-0.8 0.7-1.5 1-1.5 0.7 0-1.1-14.3 5.3-23.2 10.4-28.2 16.2-51.8 41-66.1 69.5l-3.6 7.2-6-1.4c-3.3-0.8-7.2-1.9-8.7-2.4-1.4-0.6-2.9-0.8-3.4-0.5-0.5 0.3-1.1 0.1-1.5-0.5-0.4-0.6-1.1-0.7-1.7-0.4-1.8 1.1 0.1-3.5 6.5-15.9 3.3-6.4 6.4-11.7 6.8-11.7 0.5 0 0.9-0.6 0.9-1.4 0-0.8 0.4-1.6 0.8-1.8 0.5-0.2 2.8-3.2 5.3-6.8 2.4-3.6 5.2-7.1 6.2-7.8 0.9-0.7 1.7-1.9 1.7-2.6 0-1.5 19.6-20.6 21.1-20.6 0.5 0 1.4-0.9 2.1-2 0.7-1.1 1.7-2 2.1-2 0.9 0 6.8-4.3 10.1-7.3 1.1-0.9 2.4-1.7 3-1.7 0.5 0 1.7-0.6 2.5-1.4 5.3-4.8 42-21 47.8-21.1 0.6 0 1.5-0.3 1.8-0.7 0.4-0.4 1.3-0.4 2-0.2 0.7 0.3 1.6 0 2-0.5 0.3-0.6 1-0.9 1.4-0.7 0.4 0.3 2.5 0 4.7-0.5 2.1-0.5 6.6-1.2 9.9-1.5 3.3-0.3 6.7-0.9 7.5-1.4 0.8-0.4 2.9-0.5 4.7-0.3 1.7 0.3 3.9 0 5-0.6 2.8-1.6 3.3-1.3 3.2 1.6zm-212.6 33.9c18.4 3 38.4 12.4 56.5 26.6 5.4 4.3 7.8 7.8 5.4 7.8-0.4 0-3 3.6-5.7 8-4.6 7.4-6.5 9.4-6.5 7.1 0-0.6-3.7-3.9-8.2-7.4-10-7.7-29.8-17.7-42.2-21.2-4.9-1.4-9.5-3.3-10.2-4.3-1-1.3-5.6-11.4-8.1-17.8-0.5-1.3 6.1-0.9 19 1.2zm204.6 2.6c-4.7 12-7 15.8-9.7 16.3-13.7 2.9-35.6 12.9-47.5 21.9-10.1 7.6-24.4 22.8-30.2 32-2.6 4.2-5 7.6-5.4 7.7-8.3 0.8-23.2 1.1-24 0.4-0.5-0.5 8.1-15.2 13-22.2 5.5-7.9 22-25.5 29.9-31.9 18-14.4 44.2-25.9 65-28.3 12.3-1.4 11.3-1.9 8.9 4.1zm-22.3 38.2c-13.2 14.5-27.3 24.8-43.8 32.1-5.4 2.4-9.8 4.1-9.8 3.8 0-0.2 2-3 4.4-6.2 7.6-9.9 22.4-22.4 33.1-27.9 7.8-4.1 23-10.9 23.4-10.6 0.2 0.2-3.1 4.1-7.3 8.8zm-174.3-4.5c5.3 2.1 12.9 5.9 16.9 8.5 6.7 4.2 18.9 14.1 19.7 15.9 0.1 0.4-0.4 2.6-1.3 4.8l-1.6 4-4.3-2.3c-2.3-1.3-4.4-2.5-4.7-2.8-0.3-0.3-2.1-1.7-4-3-7.5-5.1-32.8-29-30.7-29 0.3 0 4.8 1.7 10 3.9z"/>
	</g>
</svg>