<?xml version="1.0" standalone="no"?>
<!DOCTYPE svg PUBLIC "-//W3C//DTD SVG 20010904//EN"
 "http://www.w3.org/TR/2001/REC-SVG-20010904/DTD/svg10.dtd">
<svg version="1.0" xmlns="http://www.w3.org/2000/svg"
 width="1000.000000pt" height="1000.000000pt" viewBox="0 0 1000.000000 1000.000000"
 preserveAspectRatio="xMidYMid meet">

<g transform="translate(0.000000,1000.000000) scale(0.100000,-0.100000)"
fill="#000000" stroke="none">
<path d="M4829 7429 c-193 -28 -410 -113 -584 -227 -94 -63 -248 -219 -316
-322 -136 -204 -206 -401 -230 -646 -17 -170 -6 -721 16 -839 76 -415 321
-759 676 -954 271 -148 635 -189 944 -106 238 65 400 158 571 329 189 189 313
422 375 704 19 86 22 137 26 457 4 243 1 389 -7 450 -47 364 -253 718 -531
915 -157 110 -396 206 -585 235 -106 16 -263 18 -355 4z m328 -119 c160 -17
360 -93 506 -192 81 -55 247 -216 303 -295 96 -134 177 -334 209 -513 23 -127
33 -598 13 -604 -7 -2 -68 -9 -135 -15 -135 -12 -381 -71 -507 -121 -164 -65
-323 -154 -447 -251 -20 -16 -38 -27 -40 -25 -2 3 -3 99 -1 214 l3 210 63 11
c289 50 499 232 572 496 19 70 29 276 17 355 l-8 55 -43 -4 c-170 -12 -363
-132 -474 -294 -45 -67 -108 -199 -108 -228 0 -10 -4 -19 -10 -19 -6 0 -10 27
-10 61 0 55 4 68 40 121 22 33 49 90 60 126 27 87 36 228 21 317 -16 93 -77
218 -134 273 -52 51 -58 49 -120 -27 -85 -105 -120 -227 -113 -394 7 -135 28
-203 97 -304 25 -35 29 -51 29 -107 0 -36 -3 -66 -7 -66 -5 0 -16 26 -25 58
-44 145 -183 326 -310 400 -79 47 -184 82 -245 82 -49 0 -53 -2 -60 -27 -14
-56 -8 -285 10 -358 37 -145 123 -282 231 -363 96 -73 246 -137 369 -157 l37
-6 0 -214 c0 -124 -4 -215 -9 -215 -5 0 -11 4 -13 8 -6 16 -154 120 -243 170
-213 121 -510 209 -767 228 l-98 7 0 257 c0 278 9 365 56 520 61 199 159 356
320 510 274 263 574 362 971 320z m-121 -494 c35 -77 51 -206 36 -298 -12 -81
-48 -178 -66 -178 -15 0 -45 54 -62 110 -21 70 -27 178 -14 250 13 73 53 170
70 170 6 0 22 -24 36 -54z m-529 -347 c124 -60 240 -197 301 -358 33 -84 75
-261 63 -261 -18 0 -122 40 -181 70 -87 44 -196 154 -238 240 -18 36 -39 97
-47 135 -15 72 -20 197 -8 208 9 10 37 1 110 -34z m1103 -47 c0 -210 -99 -387
-277 -495 -52 -32 -166 -77 -193 -77 -29 0 23 200 85 326 47 97 142 210 219
263 35 24 136 69 159 70 4 1 7 -39 7 -87z m-1775 -842 c4 -6 32 -11 63 -11 85
-1 135 -5 155 -14 10 -4 21 -5 24 -1 3 3 11 2 17 -3 6 -5 34 -11 61 -14 65 -7
267 -74 377 -125 79 -37 198 -108 244 -145 10 -9 43 -35 72 -57 28 -23 52 -45
52 -48 -1 -4 -34 -43 -74 -86 l-73 -79 -38 34 c-103 94 -363 248 -446 263 -13
3 -25 5 -26 7 -2 1 -7 3 -13 4 -5 1 -11 3 -12 5 -2 1 -10 3 -19 5 -9 1 -56 13
-104 25 -49 11 -126 24 -171 27 l-83 6 -10 51 c-18 94 -24 166 -13 166 6 0 14
-5 17 -10z m2354 -17 c0 -16 -6 -64 -12 -108 l-12 -80 -85 -7 c-47 -4 -119
-15 -160 -24 -41 -9 -82 -18 -90 -19 -8 -2 -16 -4 -17 -4 -2 -1 -5 0 -6 2 -2
1 -11 -4 -20 -12 -10 -7 -17 -10 -17 -6 0 4 -7 2 -15 -5 -8 -7 -15 -10 -15 -7
0 11 -143 -53 -232 -104 -282 -162 -518 -410 -661 -695 l-36 -72 -60 14 c-33
8 -72 19 -87 24 -14 6 -29 8 -34 5 -5 -3 -11 -1 -15 5 -4 6 -11 7 -17 4 -18
-11 1 35 65 159 33 64 64 117 68 117 5 0 9 6 9 14 0 8 4 16 8 18 5 2 28 32 53
68 24 36 52 71 62 78 9 7 17 19 17 26 0 15 196 206 211 206 5 0 14 9 21 20 7
11 17 20 21 20 9 0 68 43 101 73 11 9 24 17 30 17 5 0 17 6 25 14 53 48 420
210 478 211 6 0 15 3 18 7 4 4 13 4 20 2 7 -3 16 0 20 5 3 6 10 9 14 7 4 -3
25 0 47 5 21 5 66 12 99 15 33 3 67 9 75 14 8 4 29 5 47 3 17 -3 39 0 50 6 28
16 33 13 32 -16z m-2126 -339 c184 -30 384 -124 565 -266 54 -43 78 -78 54
-78 -4 0 -30 -36 -57 -80 -46 -74 -65 -94 -65 -71 0 6 -37 39 -82 74 -100 77
-298 177 -422 212 -49 14 -95 33 -102 43 -10 13 -56 114 -81 178 -5 13 61 9
190 -12z m2046 -26 c-47 -120 -70 -158 -97 -163 -137 -29 -356 -129 -475 -219
-101 -76 -244 -228 -302 -320 -26 -42 -50 -76 -54 -77 -83 -8 -232 -11 -240
-4 -5 5 81 152 130 222 55 79 220 255 299 319 180 144 442 259 650 283 123 14
113 19 89 -41z m-223 -382 c-132 -145 -273 -248 -438 -321 -54 -24 -98 -41
-98 -38 0 2 20 30 44 62 76 99 224 224 331 279 78 41 230 109 234 106 2 -2
-31 -41 -73 -88z m-1743 45 c53 -21 129 -59 169 -85 67 -42 189 -141 197 -159
1 -4 -4 -26 -13 -48 l-16 -40 -43 23 c-23 13 -44 25 -47 28 -3 3 -21 17 -40
30 -75 51 -328 290 -307 290 3 0 48 -17 100 -39z"/>
</g>
</svg>
